grf
version=1
nRows=6
nColumns=37
inDegrees=no
endheader
time	ground_force_1_vx	ground_force_1_vy	ground_force_1_vz	ground_force_1_px	ground_force_1_py	ground_force_1_pz	ground_moment_1_mx	ground_moment_1_my	ground_moment_1_mz	ground_force_2_vx	ground_force_2_vy	ground_force_2_vz	ground_force_2_px	ground_force_2_py	ground_force_2_pz	ground_moment_2_mx	ground_moment_2_my	ground_moment_2_mz	ground_force_3_vx	ground_force_3_vy	ground_force_3_vz	ground_force_3_px	ground_force_3_py	ground_force_3_pz	ground_moment_3_mx	ground_moment_3_my	ground_moment_3_mz	ground_force_4_vx	ground_force_4_vy	ground_force_4_vz	ground_force_4_px	ground_force_4_py	ground_force_4_pz	ground_moment_4_mx	ground_moment_4_my	ground_moment_4_mz
      0.00000000	      0.00000000	     -0.00000000	      0.00000000	      0.00000000	      0.00000000	      0.00000000	      0.00000000	      0.00000000	      0.00000000	     -6.81089735	     42.87085342	   -344.11614990	   -276.16980351	  -1137.43588975	      0.00000000	      0.00000000	      0.00000000	    591.95677561	     -0.23479749	    -37.00603484	   -300.85131836	   -305.26656462	   -721.34684024	      0.00000000	      0.00000000	     -0.00000000	  -1386.13319115	      0.00000000	     -0.00000000	      0.00000000	      0.00000000	      0.00000000	      0.00000000	      0.00000000	      0.00000000	      0.00000000
      0.01000000	      0.00000000	     -0.00000000	      0.00000000	      0.00000000	      0.00000000	      0.00000000	      0.00000000	      0.00000000	      0.00000000	     -7.93973541	     43.87971115	   -351.64779663	   -275.17238760	  -1136.33823712	      0.00000000	      0.00000000	      0.00000000	    791.58893894	     -0.88710940	    -35.50297161	   -295.74072266	   -303.77682688	   -721.05811167	      0.00000000	      0.00000000	     -0.00000000	  -1436.18408948	      0.00000000	     -0.00000000	      0.00000000	      0.00000000	      0.00000000	      0.00000000	      0.00000000	      0.00000000	      0.00000000
      0.02000000	      0.00000000	     -0.00000000	      0.00000000	      0.00000000	      0.00000000	      0.00000000	      0.00000000	      0.00000000	      0.00000000	     -9.21898460	     44.54001617	   -361.17639160	   -274.00735241	  -1137.85077281	      0.00000000	      0.00000000	      0.00000000	    785.07425282	     -1.98015730	    -33.82563773	   -292.70132446	   -302.36661974	   -719.03501842	      0.00000000	      0.00000000	     -0.00000000	  -1327.62703949	      0.00000000	     -0.00000000	      0.00000000	      0.00000000	      0.00000000	      0.00000000	      0.00000000	      0.00000000	      0.00000000
      0.03000000	      0.00000000	     -0.00000000	      0.00000000	      0.00000000	      0.00000000	      0.00000000	      0.00000000	      0.00000000	      0.00000000	    -10.37458706	     44.92600250	   -364.35269165	   -273.27798984	  -1137.29071097	      0.00000000	      0.00000000	      0.00000000	    910.02145613	     -3.01414821	    -32.23540484	   -291.06549072	   -301.18165523	   -718.88045059	      0.00000000	      0.00000000	     -0.00000000	  -1375.13901302	      0.00000000	     -0.00000000	      0.00000000	      0.00000000	      0.00000000	      0.00000000	      0.00000000	      0.00000000	      0.00000000
      0.04000000	      0.00000000	     -0.00000000	      0.00000000	      0.00000000	      0.00000000	      0.00000000	      0.00000000	      0.00000000	      0.00000000	    -11.23796177	     44.60088730	   -365.88427734	   -271.86465794	  -1137.91996995	      0.00000000	      0.00000000	      0.00000000	   1039.90852871	     -4.05275295	    -32.26280958	   -290.26458740	   -300.38078603	   -719.17730929	      0.00000000	      0.00000000	     -0.00000000	  -1532.72911974	      0.00000000	     -0.00000000	      0.00000000	      0.00000000	      0.00000000	      0.00000000	      0.00000000	      0.00000000	      0.00000000
      0.05000000	      0.00000000	     -0.00000000	      0.00000000	      0.00000000	      0.00000000	      0.00000000	      0.00000000	      0.00000000	      0.00000000	    -11.98494053	     44.11955261	   -362.15475464	   -269.80949815	  -1137.56292922	      0.00000000	      0.00000000	      0.00000000	   1080.63275051	     -5.37797688	    -32.29534889	   -291.98837280	   -298.50441856	   -717.21828709	      0.00000000	      0.00000000	     -0.00000000	  -1473.58051636	      0.00000000	     -0.00000000	      0.00000000	      0.00000000	      0.00000000	      0.00000000	      0.00000000	      0.00000000	      0.00000000
